<svg width="10" height="9" viewBox="0 0 10 9" fill="none" xmlns="http://www.w3.org/2000/svg">
<path d="M8.99588 6.54185C9.10282 6.64795 9.1877 6.77417 9.24563 6.91324C9.30355 7.05231 9.33337 7.20148 9.33337 7.35214C9.33337 7.5028 9.30355 7.65196 9.24563 7.79103C9.1877 7.9301 9.10282 8.05633 8.99588 8.16242C8.88981 8.26939 8.76362 8.35429 8.62458 8.41223C8.48554 8.47017 8.33641 8.5 8.18579 8.5C8.03517 8.5 7.88604 8.47017 7.747 8.41223C7.60796 8.35429 7.48177 8.26939 7.37571 8.16242L5.33337 6.10818L3.29104 8.16242C3.18498 8.26939 3.05878 8.35429 2.91975 8.41223C2.78071 8.47017 2.63158 8.5 2.48096 8.5C2.33034 8.5 2.1812 8.47017 2.04217 8.41223C1.90313 8.35429 1.77694 8.26939 1.67087 8.16242C1.56393 8.05633 1.47905 7.9301 1.42112 7.79103C1.3632 7.65196 1.33337 7.5028 1.33337 7.35214C1.33337 7.20148 1.3632 7.05231 1.42112 6.91324C1.47905 6.77417 1.56393 6.64795 1.67087 6.54185L3.72461 4.49903L1.67087 2.4562C1.45602 2.2413 1.33532 1.94983 1.33532 1.64591C1.33532 1.342 1.45602 1.05053 1.67087 0.83563C1.88572 0.620729 2.17712 0.5 2.48096 0.5C2.7848 0.5 3.0762 0.620729 3.29104 0.83563L5.33337 2.88987L7.37571 0.83563C7.59055 0.620729 7.88195 0.5 8.18579 0.5C8.48963 0.5 8.78103 0.620729 8.99588 0.83563C9.21073 1.05053 9.33143 1.342 9.33143 1.64591C9.33143 1.94983 9.21073 2.2413 8.99588 2.4562L6.94214 4.49903L8.99588 6.54185Z" fill="#343A45" stroke="#EFF2F7"/>
</svg>
