<svg width="37" height="37" viewBox="0 0 37 37" fill="none" xmlns="http://www.w3.org/2000/svg">
<path d="M32.375 33.5312V3.46875C32.375 1.50312 30.8719 0 28.9062 0H3.46875C5.43438 0 6.9375 1.50312 6.9375 3.46875V33.5312C6.9375 35.4969 8.44062 37 10.4062 37H35.8438C33.8781 37 32.375 35.4969 32.375 33.5312Z" fill="#F42727"/>
<path d="M3.46875 0C1.50312 0 0 1.50312 0 3.46875V6.9375H6.9375V3.46875C6.9375 1.50312 5.43438 0 3.46875 0ZM7.97813 35.9594C8.55625 36.6531 9.48125 37 10.4062 37H13.875V30.0625L7.97813 35.9594Z" fill="#E20C0C"/>
<path d="M13.875 30.0625V33.5312C13.875 35.4969 12.3719 37 10.4062 37H33.5312C35.4969 37 37 35.4969 37 33.5312V30.0625H13.875Z" fill="#BF0202"/>
<path d="M14.3375 17.1125C14.2218 17.1125 14.1062 17.1125 14.1062 17.1125C13.9906 17.1125 13.875 17.1125 13.875 17.1125V19.3094H12.8344V13.6437H14.4531C14.6844 13.6437 14.9156 13.6437 15.1469 13.6437C15.3781 13.6437 15.4937 13.7594 15.725 13.7594C16.0719 13.875 16.4187 14.1062 16.65 14.3375C16.8812 14.5687 16.9968 14.9156 16.9968 15.3781C16.9968 15.6094 16.9969 15.8406 16.8812 16.0719C16.7656 16.3031 16.65 16.4187 16.4187 16.65C16.1875 16.8812 15.9562 16.8812 15.6093 16.9969C15.1468 17.1125 14.8 17.1125 14.3375 17.1125ZM13.875 16.1875C13.9906 16.1875 13.9906 16.1875 14.1062 16.1875C14.2218 16.1875 14.3375 16.1875 14.3375 16.1875C14.5687 16.1875 14.8 16.1875 15.0312 16.0719C15.2625 15.9562 15.3781 15.9562 15.4937 15.8406C15.6093 15.725 15.725 15.6094 15.725 15.4937C15.725 15.3781 15.8406 15.2625 15.8406 15.1469C15.8406 15.0312 15.8406 14.8 15.725 14.6844C15.6094 14.5687 15.4937 14.4531 15.3781 14.4531C15.2625 14.4531 15.1468 14.3375 15.0312 14.3375C14.9156 14.3375 14.6844 14.3375 14.4531 14.3375H13.875V16.1875ZM18.0375 19.3094V13.6437H19.5406C19.6562 13.6437 19.7718 13.6437 20.0031 13.6437C20.1187 13.6437 20.2343 13.6437 20.35 13.6437C20.4656 13.6437 20.5812 13.6437 20.6968 13.7594C20.8125 13.875 20.9281 13.7594 21.0437 13.875C21.3906 13.9906 21.6218 14.1062 21.8531 14.2219C22.0843 14.3375 22.3156 14.5687 22.4312 14.8C22.5468 15.0312 22.6625 15.2625 22.7781 15.4937C22.8937 15.725 22.8937 16.0719 22.8937 16.4187C22.8937 16.7656 22.8937 16.9969 22.7781 17.2281C22.6625 17.4594 22.6625 17.6906 22.4312 17.9219C22.3156 18.1531 22.0843 18.3844 21.8531 18.5C21.6218 18.6156 21.3906 18.8469 21.1593 18.9625C20.9281 19.0781 20.6968 19.0781 20.35 19.1937C20.0031 19.3094 19.6562 19.3094 19.3094 19.3094H18.0375ZM19.425 18.5C20.0031 18.5 20.4656 18.3844 20.8125 18.2687C21.1593 18.1531 21.3906 17.9219 21.5062 17.575C21.6219 17.3437 21.7375 16.8812 21.7375 16.5344C21.7375 16.3031 21.7375 16.0719 21.6219 15.9562C21.5062 15.8406 21.5062 15.6094 21.3906 15.4937C21.275 15.3781 21.1594 15.2625 21.0437 15.1469C20.9281 15.0312 20.6968 14.9156 20.5812 14.9156C20.4656 14.8 20.2343 14.8 20.0031 14.8C19.7718 14.8 19.5406 14.8 19.3094 14.8H18.8468V18.5H19.425ZM24.975 19.3094H23.9344V13.6437H27.5187V14.5687H24.975V16.0719H27.1718V16.9969H24.975V19.3094Z" fill="#E6E6E6"/>
</svg>
