<svg width="18" height="18" viewBox="0 0 18 18" fill="none" xmlns="http://www.w3.org/2000/svg">
<path fill-rule="evenodd" clip-rule="evenodd" d="M9.5 11.0682L9.59828 11.0683L9.81611 11.0689C11.6661 11.0785 16 11.2433 16 14.0436C16 16.64 12.4406 16.9869 9.67197 17L9.18389 16.9998C7.33387 16.9901 3 16.8254 3 14.0258C3 11.3746 6.70922 11.0682 9.5 11.0682ZM9.5 12.2807C6.00863 12.2807 4.23778 12.8683 4.23778 14.0258C4.23778 15.1946 6.00863 15.7879 9.5 15.7879C12.9914 15.7879 14.7622 15.2003 14.7622 14.0436C14.7622 12.8732 12.9914 12.2807 9.5 12.2807ZM9.5 1C11.9203 1 13.8883 2.92862 13.8883 5.29857C13.8883 7.66852 11.9203 9.59713 9.5 9.59713H9.47442C8.30348 9.59309 7.20598 9.14287 6.38327 8.33133C5.55973 7.51898 5.10835 6.4407 5.11245 5.29614C5.11245 2.92862 7.08055 1 9.5 1ZM9.5 2.21246C7.76381 2.21246 6.35024 3.59708 6.35024 5.29857C6.34696 6.12223 6.67043 6.89416 7.26044 7.47695C7.85128 8.05893 8.6385 8.38144 9.47689 8.38468L9.5 8.98363V8.38468C11.237 8.38468 12.6506 7.00005 12.6506 5.29857C12.6506 3.59708 11.237 2.21246 9.5 2.21246Z" fill="white" stroke="white" stroke-width="0.3"/>
</svg>
